<svg width="15" height="18" viewBox="0 0 15 18" fill="none" xmlns="http://www.w3.org/2000/svg">
<path id="Vector" d="M14.4551 0.822572L11.4083 0.0204154C11.0772 -0.066485 10.7374 0.130712 10.6026 0.484998L9.19641 4.2284C9.07336 4.55594 9.15539 4.94031 9.39855 5.16425L11.1739 6.82204C10.1192 9.3856 8.2765 11.518 5.9826 12.7446L4.52951 10.7192C4.3303 10.4418 3.99632 10.3482 3.70921 10.4886L0.428031 12.0929C0.114561 12.25 -0.0582874 12.6377 0.0178829 13.0154L0.720994 16.4914C0.794234 16.8523 1.07548 17.113 1.40653 17.113C8.9093 17.113 15 10.1777 15 1.60467C15 1.23034 14.7744 0.90613 14.4551 0.822572Z" fill="#F26722"/>
</svg>
