<svg width="17" height="14" viewBox="0 0 17 14" fill="none" xmlns="http://www.w3.org/2000/svg">
<path id="Vector" d="M16.6779 4.59134C16.8074 4.47909 17 4.58409 17 4.76152V12.1663C17 13.1259 16.2861 13.9044 15.4062 13.9044H1.59375C0.713867 13.9044 0 13.1259 0 12.1663V4.76514C0 4.58409 0.189258 4.48271 0.32207 4.59496C1.06582 5.225 2.05195 6.02522 5.43867 8.70833C6.13926 9.26595 7.32129 10.4391 8.5 10.4319C9.68535 10.4428 10.8906 9.24423 11.5646 8.70833C14.9514 6.02522 15.9342 5.22138 16.6779 4.59134ZM8.5 9.26957C9.27031 9.28406 10.3793 8.21226 10.9371 7.77051C15.3432 4.28356 15.6785 3.9794 16.6945 3.11038C16.8871 2.94743 17 2.69397 17 2.42602V1.73804C17 0.778499 16.2861 0 15.4062 0H1.59375C0.713867 0 0 0.778499 0 1.73804V2.42602C0 2.69397 0.112891 2.94381 0.305469 3.11038C1.32148 3.97578 1.65684 4.28356 6.06289 7.77051C6.6207 8.21226 7.72969 9.28406 8.5 9.26957Z" fill="#F26722"/>
</svg>
