<svg width="80" height="75" viewBox="0 0 80 75" fill="none" xmlns="http://www.w3.org/2000/svg">
<path id="Vector" d="M40 0C17.9032 0 0 16.7843 0 37.5C0 58.2157 17.9032 75 40 75C62.0968 75 80 58.2157 80 37.5C80 16.7843 62.0968 0 40 0ZM40 14.5161C47.8387 14.5161 54.1935 20.4738 54.1935 27.8226C54.1935 35.1714 47.8387 41.129 40 41.129C32.1613 41.129 25.8064 35.1714 25.8064 27.8226C25.8064 20.4738 32.1613 14.5161 40 14.5161ZM40 66.5323C30.5323 66.5323 22.0484 62.5101 16.371 56.2198C19.4032 50.8669 25.3387 47.1774 32.2581 47.1774C32.6452 47.1774 33.0323 47.2379 33.4032 47.3438C35.5 47.9788 37.6935 48.3871 40 48.3871C42.3064 48.3871 44.5161 47.9788 46.5968 47.3438C46.9677 47.2379 47.3548 47.1774 47.7419 47.1774C54.6613 47.1774 60.5968 50.8669 63.629 56.2198C57.9516 62.5101 49.4677 66.5323 40 66.5323Z" fill="#F26722"/>
</svg>
