<svg width="122" height="122" viewBox="0 0 122 122" fill="none" xmlns="http://www.w3.org/2000/svg">
<g id="CheckCircle" clip-path="url(#clip0_3_640)">
<path id="Vector" d="M61 114.375C46.8441 114.375 33.2679 108.752 23.2582 98.7418C13.2484 88.7321 7.625 75.1559 7.625 61C7.625 46.8441 13.2484 33.2679 23.2582 23.2582C33.2679 13.2484 46.8441 7.625 61 7.625C75.1559 7.625 88.7321 13.2484 98.7418 23.2582C108.752 33.2679 114.375 46.8441 114.375 61C114.375 75.1559 108.752 88.7321 98.7418 98.7418C88.7321 108.752 75.1559 114.375 61 114.375ZM61 122C77.1782 122 92.6938 115.573 104.134 104.134C115.573 92.6938 122 77.1782 122 61C122 44.8218 115.573 29.3062 104.134 17.8665C92.6938 6.42677 77.1782 0 61 0C44.8218 0 29.3062 6.42677 17.8665 17.8665C6.42677 29.3062 0 44.8218 0 61C0 77.1782 6.42677 92.6938 17.8665 104.134C29.3062 115.573 44.8218 122 61 122Z" fill="#008000"/>
<path id="Vector_2" d="M83.6463 37.8963C83.592 37.949 83.541 38.005 83.4938 38.0641L57.0121 71.8047L41.053 55.8379C39.9689 54.8278 38.5351 54.2778 37.0535 54.304C35.572 54.3301 34.1584 54.9303 33.1107 55.9781C32.0629 57.0259 31.4627 58.4394 31.4366 59.921C31.4104 61.4025 31.9604 62.8364 32.9705 63.9204L53.1463 84.1038C53.6898 84.6464 54.337 85.0739 55.0493 85.3608C55.7617 85.6478 56.5245 85.7884 57.2923 85.7741C58.0602 85.7599 58.8173 85.5912 59.5185 85.278C60.2197 84.9648 60.8506 84.5136 61.3736 83.9513L91.8127 45.9026C92.8491 44.8147 93.4158 43.3626 93.3902 41.8603C93.3646 40.358 92.7487 38.9261 91.6758 37.8742C90.6029 36.8223 89.1591 36.2349 87.6565 36.239C86.1539 36.2432 84.7134 36.8385 83.6463 37.8963Z" fill="#008000"/>
</g>
<defs>
<clipPath id="clip0_3_640">
<rect width="122" height="122" fill="white"/>
</clipPath>
</defs>
</svg>
