<svg width="18" height="15" viewBox="0 0 18 15" fill="none" xmlns="http://www.w3.org/2000/svg">
<path d="M6 13.9286C6 13.6444 6.07902 13.3719 6.21967 13.171C6.36032 12.97 6.55109 12.8571 6.75 12.8571H11.25C11.4489 12.8571 11.6397 12.97 11.7803 13.171C11.921 13.3719 12 13.6444 12 13.9286C12 14.2127 11.921 14.4853 11.7803 14.6862C11.6397 14.8871 11.4489 15 11.25 15H6.75C6.55109 15 6.36032 14.8871 6.21967 14.6862C6.07902 14.4853 6 14.2127 6 13.9286ZM3 7.5C3 7.21584 3.07902 6.94332 3.21967 6.74239C3.36032 6.54145 3.55109 6.42857 3.75 6.42857H14.25C14.4489 6.42857 14.6397 6.54145 14.7803 6.74239C14.921 6.94332 15 7.21584 15 7.5C15 7.78416 14.921 8.05668 14.7803 8.25761C14.6397 8.45855 14.4489 8.57143 14.25 8.57143H3.75C3.55109 8.57143 3.36032 8.45855 3.21967 8.25761C3.07902 8.05668 3 7.78416 3 7.5ZM0 1.07143C0 0.787268 0.0790178 0.514746 0.21967 0.313814C0.360322 0.112883 0.551088 0 0.75 0H17.25C17.4489 0 17.6397 0.112883 17.7803 0.313814C17.921 0.514746 18 0.787268 18 1.07143C18 1.35559 17.921 1.62811 17.7803 1.82904C17.6397 2.02997 17.4489 2.14286 17.25 2.14286H0.75C0.551088 2.14286 0.360322 2.02997 0.21967 1.82904C0.0790178 1.62811 0 1.35559 0 1.07143Z" fill="#21215F"/>
</svg>
