<svg width="50" height="39" viewBox="0 0 50 39" fill="none" xmlns="http://www.w3.org/2000/svg">
<g id="Group 72">
<path id="Rectangle 528" d="M1 32.7373C1 31.41 1.87219 30.2405 3.14435 29.8619L8.90603 28.1474C10.8295 27.575 12.7617 29.0159 12.7617 31.0227V35.9999C12.7617 37.6568 11.4185 38.9999 9.76167 38.9999H4C2.34315 38.9999 1 37.6568 1 35.9999V32.7373Z" fill="black"/>
<path id="Rectangle 529" d="M15.3755 27.5643C15.3755 26.321 16.1423 25.2066 17.3035 24.7624L23.0651 22.5579C25.0294 21.8064 27.1372 23.2568 27.1372 25.3599V35.9999C27.1372 37.6568 25.794 38.9999 24.1372 38.9999H18.3755C16.7186 38.9999 15.3755 37.6568 15.3755 35.9999V27.5643Z" fill="black"/>
<path id="Rectangle 530" d="M29.751 21.8374C29.751 20.7098 30.3833 19.6774 31.3877 19.165L37.1494 16.2258C39.1454 15.2076 41.5126 16.6575 41.5126 18.8982V35.9999C41.5126 37.6567 40.1695 38.9999 38.5126 38.9999H32.751C31.0941 38.9999 29.751 37.6567 29.751 35.9999V21.8374Z" fill="black"/>
<path id="Line 288" d="M1.65263 27.1313L13.0892 23.6568L21.5836 20.1832L31.7118 14.9726L38.899 11.2104" stroke="black" stroke-width="3" stroke-linecap="round"/>
<path id="Polygon 14" d="M45.3847 7.60829C45.7944 7.60632 46.0708 8.01359 45.8753 8.33106L41.806 14.938C41.6156 15.2472 41.1176 15.2393 40.9033 14.9236L36.4465 8.35783C36.2322 8.04216 36.4596 7.65137 36.8586 7.64945L45.3847 7.60829Z" fill="black"/>
<path id="Vector" d="M23.717 8.20547L19.2161 7.09453C18.6951 6.96797 18.3325 6.55664 18.3325 6.09961C18.3325 5.52656 18.8826 5.0625 19.562 5.0625H22.3251C22.8335 5.0625 23.3336 5.19258 23.7504 5.43164C24.0046 5.57578 24.3463 5.54063 24.563 5.36133L26.0133 4.16602C26.3092 3.92344 26.2676 3.51914 25.9383 3.30469C24.9173 2.62969 23.642 2.25352 22.3334 2.25V0.5625C22.3334 0.253125 22.0333 0 21.6666 0H20.333C19.9662 0 19.6662 0.253125 19.6662 0.5625V2.25H19.562C16.9072 2.25 14.7734 4.17305 15.0193 6.45469C15.1944 8.07539 16.6613 9.39375 18.5117 9.85078L22.7835 10.9055C23.3044 11.0355 23.667 11.4434 23.667 11.9004C23.667 12.4734 23.1169 12.9375 22.4376 12.9375H19.6745C19.166 12.9375 18.6659 12.8074 18.2492 12.5684C17.995 12.4242 17.6532 12.4594 17.4365 12.6387L15.9862 13.834C15.6903 14.0766 15.732 14.4809 16.0612 14.6953C17.0823 15.3703 18.3575 15.7465 19.6662 15.75V17.4375C19.6662 17.7469 19.9662 18 20.333 18H21.6666C22.0333 18 22.3334 17.7469 22.3334 17.4375V15.743C24.2755 15.7113 26.0967 14.7375 26.7385 13.1871C27.6345 11.0215 26.13 8.79961 23.717 8.20547Z" fill="black"/>
</g>
</svg>
