<svg width="10" height="14" viewBox="0 0 10 14" fill="none" xmlns="http://www.w3.org/2000/svg">
<path id="Vector" d="M0.714286 12.2796C0.714286 12.5907 0.827168 12.8889 1.0281 13.1089C1.22903 13.3288 1.50155 13.4524 1.78571 13.4524H8.21429C8.49845 13.4524 8.77097 13.3288 8.9719 13.1089C9.17283 12.8889 9.28571 12.5907 9.28571 12.2796V4.07061H0.714286V12.2796ZM6.78571 6.02514C6.78571 5.92147 6.82334 5.82204 6.89032 5.74873C6.9573 5.67542 7.04814 5.63424 7.14286 5.63424C7.23758 5.63424 7.32842 5.67542 7.3954 5.74873C7.46237 5.82204 7.5 5.92147 7.5 6.02514V11.4978C7.5 11.6015 7.46237 11.7009 7.3954 11.7742C7.32842 11.8475 7.23758 11.8887 7.14286 11.8887C7.04814 11.8887 6.9573 11.8475 6.89032 11.7742C6.82334 11.7009 6.78571 11.6015 6.78571 11.4978V6.02514ZM4.64286 6.02514C4.64286 5.92147 4.68048 5.82204 4.74746 5.74873C4.81444 5.67542 4.90528 5.63424 5 5.63424C5.09472 5.63424 5.18556 5.67542 5.25254 5.74873C5.31952 5.82204 5.35714 5.92147 5.35714 6.02514V11.4978C5.35714 11.6015 5.31952 11.7009 5.25254 11.7742C5.18556 11.8475 5.09472 11.8887 5 11.8887C4.90528 11.8887 4.81444 11.8475 4.74746 11.7742C4.68048 11.7009 4.64286 11.6015 4.64286 11.4978V6.02514ZM2.5 6.02514C2.5 5.92147 2.53763 5.82204 2.6046 5.74873C2.67158 5.67542 2.76242 5.63424 2.85714 5.63424C2.95186 5.63424 3.0427 5.67542 3.10968 5.74873C3.17666 5.82204 3.21429 5.92147 3.21429 6.02514V11.4978C3.21429 11.6015 3.17666 11.7009 3.10968 11.7742C3.0427 11.8475 2.95186 11.8887 2.85714 11.8887C2.76242 11.8887 2.67158 11.8475 2.6046 11.7742C2.53763 11.7009 2.5 11.6015 2.5 11.4978V6.02514ZM9.64286 1.72518H6.96429L6.75446 1.2683C6.71002 1.17063 6.64155 1.08847 6.55677 1.03106C6.47198 0.973657 6.37425 0.943285 6.27455 0.943364H3.72321C3.62375 0.942945 3.52618 0.973204 3.4417 1.03067C3.35721 1.08814 3.28923 1.1705 3.24554 1.2683L3.03571 1.72518H0.357143C0.262423 1.72518 0.171582 1.76636 0.104605 1.83967C0.0376275 1.91298 0 2.01241 0 2.11608L0 2.89789C0 3.00157 0.0376275 3.101 0.104605 3.17431C0.171582 3.24762 0.262423 3.2888 0.357143 3.2888H9.64286C9.73758 3.2888 9.82842 3.24762 9.8954 3.17431C9.96237 3.101 10 3.00157 10 2.89789V2.11608C10 2.01241 9.96237 1.91298 9.8954 1.83967C9.82842 1.76636 9.73758 1.72518 9.64286 1.72518Z" fill="white"/>
</svg>
