<svg width="11" height="10" viewBox="0 0 11 10" fill="none" xmlns="http://www.w3.org/2000/svg">
<path d="M3.66667 8.63892C3.66667 8.4781 3.71496 8.32386 3.80091 8.21014C3.88686 8.09642 4.00344 8.03253 4.125 8.03253H6.875C6.99656 8.03253 7.11314 8.09642 7.19909 8.21014C7.28505 8.32386 7.33333 8.4781 7.33333 8.63892C7.33333 8.79975 7.28505 8.95398 7.19909 9.0677C7.11314 9.18142 6.99656 9.24531 6.875 9.24531H4.125C4.00344 9.24531 3.88686 9.18142 3.80091 9.0677C3.71496 8.95398 3.66667 8.79975 3.66667 8.63892ZM1.83333 5.00059C1.83333 4.83976 1.88162 4.68552 1.96758 4.5718C2.05353 4.45808 2.17011 4.3942 2.29167 4.3942H8.70833C8.82989 4.3942 8.94647 4.45808 9.03242 4.5718C9.11838 4.68552 9.16667 4.83976 9.16667 5.00059C9.16667 5.16141 9.11838 5.31565 9.03242 5.42937C8.94647 5.54309 8.82989 5.60697 8.70833 5.60697H2.29167C2.17011 5.60697 2.05353 5.54309 1.96758 5.42937C1.88162 5.31565 1.83333 5.16141 1.83333 5.00059ZM0 1.36225C0 1.20142 0.0482886 1.04719 0.134243 0.933467C0.220197 0.819747 0.336776 0.755859 0.458333 0.755859H10.5417C10.6632 0.755859 10.7798 0.819747 10.8658 0.933467C10.9517 1.04719 11 1.20142 11 1.36225C11 1.52307 10.9517 1.67731 10.8658 1.79103C10.7798 1.90475 10.6632 1.96864 10.5417 1.96864H0.458333C0.336776 1.96864 0.220197 1.90475 0.134243 1.79103C0.0482886 1.67731 0 1.52307 0 1.36225Z" fill="white"/>
</svg>
